<svg width="152" height="90" viewBox="0 0 152 90" fill="none" xmlns="http://www.w3.org/2000/svg">
<path d="M0.100098 89.257V62.2983H10.6194C13.9439 62.2983 16.496 63.0299 18.2756 64.4931C19.1206 65.1447 19.8019 65.9844 20.2653 66.9456C20.7287 67.9067 20.9614 68.9627 20.9449 70.0296C20.9783 71.2748 20.6603 72.5041 20.0275 73.5769C19.4246 74.5507 18.5958 75.3647 17.6112 75.9497C16.6076 76.5536 15.5082 76.9816 14.3605 77.2152C16.4748 78.1614 18.2345 79.7536 19.3868 81.763C20.7332 84.0827 21.681 86.6119 22.1906 89.2452H14.9458C14.3737 86.1078 13.3995 83.6032 12.0233 81.7314C10.6471 79.8595 8.98483 78.8682 7.03651 78.7575V89.257H0.100098ZM9.21551 66.9648H7.03651V74.3678H9.21551C10.7499 74.3678 11.9165 74.0436 12.7233 73.399C13.1035 73.0521 13.4072 72.6298 13.615 72.1589C13.8228 71.688 13.9302 71.179 13.9302 70.6643C13.9302 70.1497 13.8228 69.6406 13.615 69.1698C13.4072 68.6989 13.1035 68.2766 12.7233 67.9297C11.9165 67.2891 10.7499 66.9648 9.21551 66.9648ZM33.319 89.7909C31.5721 89.8088 29.8471 89.4017 28.2926 88.6045C26.7727 87.8153 25.5236 86.5896 24.7058 85.0849C23.8226 83.503 23.381 81.5112 23.381 79.1094C23.3369 77.1565 23.7613 75.2214 24.6188 73.4662C25.3816 71.9271 26.5721 70.6405 28.0474 69.7607C29.6096 68.864 31.3877 68.4127 33.1885 68.4557C35.0278 68.398 36.8454 68.8658 38.4283 69.8042C39.8735 70.7053 41.0197 72.0138 41.7225 73.5651C42.4941 75.341 42.8654 77.2649 42.8101 79.2004V80.5252H29.9259C30.0788 82.3522 30.4611 83.6467 31.0727 84.4086C31.3345 84.7665 31.6775 85.0571 32.0735 85.2565C32.4695 85.4559 32.9072 85.5583 33.3506 85.5555C33.7041 85.5769 34.0584 85.5273 34.3925 85.4099C34.7266 85.2924 35.0339 85.1093 35.2963 84.8713C35.8035 84.3379 36.142 83.6665 36.2691 82.9415H42.5965C42.0692 85.222 40.9725 86.9356 39.3063 88.0825C37.533 89.2526 35.4427 89.849 33.319 89.7909ZM33.1608 72.6871C32.7247 72.6874 32.2955 72.7959 31.9118 73.003C31.528 73.2101 31.2016 73.5092 30.962 73.8735C30.3767 74.6644 30.0327 75.7981 29.9298 77.2745H36.2572C36.2293 76.0878 35.9087 74.9263 35.324 73.8933C35.1026 73.5171 34.7854 73.2065 34.4046 72.9931C34.0238 72.7798 33.5932 72.6715 33.1568 72.6792L33.1608 72.6871ZM48.8725 89.2649L43.1462 68.9856H50.0035L52.7322 82.8703L56.0422 68.9856H61.733L65.1972 82.9098L67.8468 68.9856H74.0833L68.353 89.2649H61.6499L58.6088 78.192L55.5716 89.2649H48.8725ZM80.4621 89.7909C78.8425 89.8586 77.2547 89.3279 76.0012 88.3C74.8465 87.3061 74.2691 85.8982 74.2691 84.0765C74.2168 82.7906 74.6077 81.5257 75.3764 80.4936C76.1554 79.5281 77.1587 78.7678 78.2989 78.279C79.5557 77.7298 80.8783 77.3456 82.2337 77.1361C83.5938 76.9086 84.9681 76.7764 86.3465 76.7406V76.2977C86.4027 75.361 86.1783 74.4289 85.702 73.6204C85.502 73.3159 85.2262 73.0686 84.9017 72.9029C84.5772 72.7371 84.2152 72.6587 83.8512 72.6753C83.5359 72.6667 83.2221 72.721 82.9281 72.8351C82.6341 72.9491 82.3658 73.1207 82.1388 73.3396C81.6332 73.8572 81.3169 74.5302 81.2411 75.2497H75.0086C75.1307 74.2645 75.4487 73.3136 75.9438 72.4531C76.4389 71.5926 77.1011 70.8399 77.8916 70.2392C79.4734 69.0502 81.5377 68.4544 84.0845 68.4517C87.0478 68.4517 89.2361 69.2097 90.6492 70.7256C92.0623 72.2416 92.7702 74.5102 92.7728 77.5315V89.2412H86.8409L86.6827 86.5876C86.0001 87.5881 85.0675 88.3925 83.9777 88.9209C82.8898 89.4814 81.6858 89.7793 80.4621 89.7909ZM83.0721 85.5634C83.5169 85.5657 83.9565 85.4673 84.3578 85.2756C84.7592 85.0838 85.1119 84.8036 85.3895 84.4561C86.0275 83.7205 86.3465 82.6541 86.3465 81.2568V79.675C84.3956 79.725 82.9996 80.0796 82.1586 80.7388C81.7679 81.0137 81.4491 81.3785 81.2289 81.8025C81.0086 82.2264 80.8935 82.6971 80.8931 83.1748C80.8653 83.4987 80.9042 83.8248 81.0076 84.1329C81.111 84.4411 81.2767 84.7247 81.4942 84.9662C81.7051 85.1641 81.9532 85.318 82.2241 85.4192C82.4949 85.5203 82.7832 85.5667 83.0721 85.5555V85.5634ZM96.593 89.257V68.9777H102.398L102.707 72.5171C103.075 71.5064 103.676 70.5971 104.463 69.8635C105.009 69.4041 105.643 69.0617 106.327 68.8576C107.01 68.6536 107.729 68.5921 108.437 68.6771L108.943 68.7562V75.0836C108.714 75.0132 108.478 74.9655 108.239 74.9413C107.943 74.9026 107.644 74.8828 107.346 74.882C106.8 74.8634 106.256 74.9554 105.747 75.1525C105.238 75.3496 104.774 75.6477 104.384 76.0288C103.593 76.7934 103.204 77.9666 103.217 79.5484V89.2452L96.593 89.257ZM118.26 68.4557C119.294 68.4545 120.312 68.71 121.222 69.1991C122.167 69.7041 122.951 70.4646 123.484 71.394V61.1119H130.104V89.2768H124.173L123.939 85.9786C122.716 88.528 120.739 89.8028 118.007 89.8028C116.506 89.8302 115.041 89.3401 113.859 88.4147C112.624 87.4155 111.683 86.101 111.134 84.6103C110.472 82.8549 110.153 80.989 110.193 79.1134C110.165 77.2176 110.516 75.3353 111.225 73.5769C111.808 72.0895 112.786 70.7892 114.053 69.8161C115.265 68.9112 116.743 68.4329 118.256 68.4557H118.26ZM120.289 73.2012C119.221 73.2012 118.419 73.7588 117.873 74.874C117.281 76.2066 117 77.6562 117.05 79.1134C117 80.5791 117.28 82.0374 117.869 83.3804C118.415 84.5075 119.217 85.0691 120.285 85.0691C121.246 85.0691 122.029 84.5787 122.658 83.6019C123.287 82.6251 123.571 81.2291 123.571 79.4772V78.7575C123.571 77.0148 123.267 75.6531 122.658 74.6724C122.029 73.6916 121.246 73.2012 120.285 73.2012H120.289ZM142.182 89.7909C139.406 89.7909 137.231 89.1937 135.657 87.9994C134.083 86.8051 133.181 85.0915 132.952 82.8584H139.378C139.507 83.9578 139.858 84.7145 140.43 85.1284C140.956 85.5304 141.599 85.7498 142.261 85.7532C142.887 85.7924 143.507 85.6151 144.017 85.251C144.212 85.102 144.369 84.9098 144.477 84.6895C144.585 84.4691 144.64 84.2268 144.638 83.9815C144.63 83.5024 144.442 83.0438 144.112 82.6963C143.764 82.2929 143.105 81.9568 142.134 81.6879L138.86 80.806C137.382 80.4623 136.019 79.7399 134.905 78.71C133.956 77.7715 133.482 76.4717 133.482 74.8108C133.435 73.5202 133.857 72.2563 134.668 71.2516C135.51 70.2719 136.604 69.5416 137.832 69.1398C139.274 68.6511 140.79 68.413 142.312 68.4359C144.754 68.4359 146.689 68.9988 148.118 70.1245C149.547 71.2503 150.443 72.873 150.807 74.9927H144.404C144.33 74.33 144.07 73.7019 143.653 73.1815C143.224 72.7677 142.658 72.5252 142.062 72.4997C141.466 72.4742 140.881 72.6675 140.418 73.043C140.243 73.2116 140.104 73.4144 140.01 73.6389C139.916 73.8634 139.869 74.1048 139.872 74.3481C139.866 74.8149 140.034 75.2674 140.343 75.6175C140.824 76.063 141.425 76.3573 142.071 76.4638L144.875 77.1875C147.111 77.7781 148.693 78.536 149.621 79.4614C150.549 80.3868 151.017 81.6404 151.024 83.2223C151.024 85.3156 150.245 86.9317 148.687 88.0706C147.129 89.2096 144.961 89.783 142.182 89.7909Z" fill="url(#paint0_radial_306_157)"/>
<path d="M111.621 0.811768C106.085 0.811768 101.157 8.42442 97.9261 20.3318C94.6873 8.42442 89.7519 0.811768 84.2194 0.811768C74.495 0.811768 66.6055 26.1451 66.6055 57.3946H74.4475C74.4475 28.3755 78.8292 4.8534 84.2312 4.8534C89.6333 4.8534 94.015 26.5682 94.015 53.3529H101.841C101.841 26.5682 106.219 4.8534 111.621 4.8534C117.023 4.8534 121.409 28.3755 121.409 57.3946H129.219C129.219 26.1451 121.338 0.811768 111.621 0.811768Z" fill="#FDBB20"/>
<path d="M13.2217 42.1653L16.1481 15.1829H22.9698L28.4312 32.1363L33.9281 15.1829H40.7538L43.6763 42.1653H36.6963L35.1778 25.6943L30.5509 40.1919H26.2008L21.5264 25.5321L19.9683 42.1653H13.2217ZM45.183 50.1418L46.5473 45.9538C47.2942 46.2882 48.1018 46.4659 48.9201 46.4758C49.5185 46.4812 50.0997 46.2754 50.5613 45.8945C51.0437 45.5201 51.5315 44.7556 52.0245 43.6008L52.764 41.8291L45.1592 21.8662H52.0245L55.7655 34.6752L59.3959 21.8662H65.8301L57.4819 43.9172C56.5486 46.3901 55.4571 48.2159 54.2074 49.3943C53.6076 49.9739 52.8991 50.4291 52.1227 50.7338C51.3462 51.0386 50.5172 51.1868 49.6833 51.17C48.8442 51.1762 48.0071 51.0873 47.188 50.905C46.4866 50.7478 45.8114 50.4908 45.183 50.1418Z" fill="url(#paint1_linear_306_157)"/>
<defs>
<radialGradient id="paint0_radial_306_157" cx="0" cy="0" r="1" gradientUnits="userSpaceOnUse" gradientTransform="translate(88.1036 59.6797) scale(95.4853 80.632)">
<stop stop-color="#E8800F"/>
<stop offset="0.11" stop-color="#E96E14"/>
<stop offset="0.34" stop-color="#EB411F"/>
<stop offset="0.51" stop-color="#ED1C29"/>
<stop offset="0.58" stop-color="#D21F39"/>
<stop offset="0.73" stop-color="#A52452"/>
<stop offset="0.84" stop-color="#892762"/>
<stop offset="0.9" stop-color="#7F2868"/>
<stop offset="1" stop-color="#5D2552"/>
</radialGradient>
<linearGradient id="paint1_linear_306_157" x1="13.2217" y1="33.1645" x2="65.8301" y2="33.1645" gradientUnits="userSpaceOnUse">
<stop stop-color="#842C71"/>
<stop offset="0.07" stop-color="#9B2861"/>
<stop offset="0.19" stop-color="#BF2349"/>
<stop offset="0.31" stop-color="#D81F37"/>
<stop offset="0.42" stop-color="#E81D2D"/>
<stop offset="0.5" stop-color="#ED1C29"/>
<stop offset="1" stop-color="#E7680F"/>
</linearGradient>
</defs>
</svg>
